HIERARCHY
ROOT Hips
{
	OFFSET 0.000000 88.474243 0.000000
	CHANNELS 6 Xposition Yposition Zposition Zrotation Yrotation Xrotation 
	JOINT Hips_Spine
	{
		OFFSET 0.000000 0.000000 0.000000
		CHANNELS 3 Zrotation Yrotation Xrotation
		JOINT Spine
		{
			OFFSET 0.005100 8.711998 -0.691000
			CHANNELS 3 Zrotation Yrotation Xrotation
			JOINT Spine1
			{
				OFFSET -0.009200 8.660301 -1.275000
				CHANNELS 3 Zrotation Yrotation Xrotation
				JOINT Spine2
				{
					OFFSET 0.006300 9.852501 -1.857000
					CHANNELS 3 Zrotation Yrotation Xrotation
					JOINT Spine2_Neck
					{
						OFFSET 0.000000 0.000000 0.000000
						CHANNELS 3 Zrotation Yrotation Xrotation
						JOINT Neck
						{
							OFFSET 0.016300 11.420799 -0.263300
							CHANNELS 3 Zrotation Yrotation Xrotation
							End Site #name: Head
							{
								OFFSET -0.019200 9.262405 2.362500
							}
						}
					}
					JOINT Spine2_LeftShoulder
					{
						OFFSET 0.000000 0.000000 0.000000
						CHANNELS 3 Zrotation Yrotation Xrotation
						JOINT LeftShoulder
						{
							OFFSET 5.616900 6.732201 -0.345700
							CHANNELS 3 Zrotation Yrotation Xrotation
							JOINT LeftArm
							{
								OFFSET 10.664888 -0.183372 -2.440700
								CHANNELS 3 Zrotation Yrotation Xrotation
								JOINT LeftForeArm
								{
									OFFSET 27.459126 0.000000 0.000000
									CHANNELS 3 Zrotation Yrotation Xrotation
									End Site #name: LeftHand
									{
										OFFSET 21.306858 0.000000 0.000000
									}
								}
							}
						}
					}
					JOINT Spine2_RightShoulder
					{
						OFFSET 0.000000 0.000000 0.000000
						CHANNELS 3 Zrotation Yrotation Xrotation
						JOINT RightShoulder
						{
							OFFSET -5.580300 6.737503 -0.344400
							CHANNELS 3 Zrotation Yrotation Xrotation
							JOINT RightArm
							{
								OFFSET -10.679335 -0.188484 -2.383900
								CHANNELS 3 Zrotation Yrotation Xrotation
								JOINT RightForeArm
								{
									OFFSET -27.503529 0.000000 0.000000
									CHANNELS 3 Zrotation Yrotation Xrotation
									End Site #name: RightHand
									{
										OFFSET -21.306808 0.000000 0.000000
									}
								}
							}
						}
					}
				}
			}
		}
	}
	JOINT Hips_LeftUpLeg
	{
		OFFSET 0.000000 0.000000 0.000000
		CHANNELS 3 Zrotation Yrotation Xrotation
		JOINT LeftUpLeg
		{
			OFFSET 6.857700 -6.739601 0.312100
			CHANNELS 3 Zrotation Yrotation Xrotation
			JOINT LeftLeg
			{
				OFFSET -0.367590 -34.731552 -4.572400
				CHANNELS 3 Zrotation Yrotation Xrotation
				End Site #name: LeftFoot
				{
					OFFSET 0.367590 -34.656704 -6.067400
				}
			}
		}
	}
	JOINT Hips_RightUpLeg
	{
		OFFSET 0.000000 0.000000 0.000000
		CHANNELS 3 Zrotation Yrotation Xrotation
		JOINT RightUpLeg
		{
			OFFSET -6.876100 -6.733299 0.301000
			CHANNELS 3 Zrotation Yrotation Xrotation
			JOINT RightLeg
			{
				OFFSET 0.347353 -34.795158 -4.515900
				CHANNELS 3 Zrotation Yrotation Xrotation
				End Site #name: RightFoot
				{
					OFFSET -0.347353 -34.589367 -6.070300
				}
			}
		}
	}
}
MOTION
Frames: 16
Frame Time: 0.041667
-3.934793 -0.543421 74.040191 0.001439 31.405896 -0.441600 -0.000000 0.000000 0.000000 1.127894 -2.333432 4.838271 0.695105 0.164352 2.804810 0.000000 0.000000 0.000000 0.384466 2.258342 -0.065417 1.784557 1.282255 -7.735206 0.171344 -1.175696 8.010359 -13.008528 -5.937001 -2.970657 -39.882355 -52.436588 33.963924 -36.100914 -80.711558 44.584242 -1.192598 -1.681744 2.873630 9.853430 -12.771661 -1.112360 41.428573 29.952814 -6.452597 60.414788 86.922948 63.676562 0.000000 -0.000000 0.000000 20.824575 3.503051 -21.229022 -11.225816 -7.352787 88.199791 -0.000000 -0.000000 0.000000 -23.258631 -12.818250 -65.425203 -2.198303 -1.119060 89.313823 
-4.525948 -0.366070 75.229673 -0.432897 28.903543 -2.384822 -0.000000 0.000000 0.000000 1.559231 -2.174789 5.024380 0.863025 0.261286 2.821664 0.000000 0.000000 0.000000 0.257585 2.021760 0.389720 1.689642 0.727387 -6.730054 0.215873 -0.961999 7.823838 -13.120598 -4.851440 -3.032342 -36.077725 -52.947888 30.293024 -31.464575 -79.556776 40.184087 -1.242615 -1.378188 2.717523 11.072738 -15.225150 -1.366896 42.212488 34.774084 -4.601518 135.722608 84.936662 139.034528 0.000000 -0.000000 0.000000 20.720428 5.229357 -19.585091 -11.594954 -7.699613 88.006055 -0.000000 -0.000000 0.000000 -22.573637 -14.116811 -64.089953 -2.628855 -1.652293 89.283966 
-5.048341 -0.163452 76.442743 -1.134337 27.780506 -4.024351 -0.000000 0.000000 0.000000 1.917904 -2.093935 5.154612 0.942678 0.346246 2.800039 0.000000 0.000000 0.000000 0.207403 1.826178 1.134320 1.669631 0.273432 -5.380598 0.233402 -0.802037 7.625773 -13.226534 -3.907477 -3.119046 -33.140299 -53.783537 27.146001 -28.526723 -78.670655 37.414552 -1.228813 -1.140254 2.629994 12.476256 -17.014856 -1.656707 43.048951 38.491261 -2.489007 151.884173 80.356128 154.840861 0.000000 -0.000000 0.000000 21.228529 7.764291 -18.896547 -12.696462 -8.311881 87.822008 -0.000000 -0.000000 0.000000 -20.734941 -15.426745 -63.076855 -4.170229 -2.260296 88.866044 
-5.433376 -0.023949 77.670601 -2.107226 27.933073 -5.237229 -0.000000 0.000000 0.000000 2.149778 -2.104334 5.246235 0.950387 0.418962 2.768318 0.000000 0.000000 0.000000 0.208908 1.631415 2.173640 1.701023 -0.276686 -3.725654 0.234346 -0.731163 7.463126 -13.376960 -3.191701 -3.208713 -31.015459 -55.022618 24.583655 -26.844823 -78.179154 35.821050 -1.124180 -0.992935 2.674103 13.855878 -17.822804 -1.678711 43.810839 40.798155 -1.185147 155.281321 76.984268 157.809881 0.000000 -0.000000 0.000000 22.354306 10.974819 -18.627517 -13.566082 -8.950778 87.224971 -0.000000 -0.000000 0.000000 -18.042175 -16.405238 -62.824173 -6.571654 -2.934764 86.903951 
-5.649133 0.012387 78.901050 -3.772676 31.172479 -6.164107 -0.000000 0.000000 0.000000 2.509876 -2.294019 5.383979 0.907579 0.458197 2.734004 0.000000 0.000000 0.000000 0.256691 1.424873 3.526219 1.803670 -0.899567 -1.750518 0.226916 -0.745324 7.368876 -13.600773 -2.712862 -3.302347 -29.481743 -56.754802 22.394448 -26.130359 -78.081436 35.135523 -0.916437 -0.938049 2.876383 15.406527 -18.278414 -1.574928 44.714212 41.254604 -0.366030 153.277945 76.231036 155.409819 0.000000 -0.000000 0.000000 23.411121 13.899738 -18.965782 -13.940619 -9.635112 85.652317 -0.000000 -0.000000 0.000000 -15.675488 -17.176889 -62.876294 -7.869013 -3.562392 84.347984 
-5.700963 -0.029624 80.075276 -4.715665 34.180104 -5.773147 -0.000000 0.000000 0.000000 3.001729 -2.594316 5.484326 0.868204 0.453073 2.721936 0.000000 0.000000 0.000000 0.283917 1.210473 4.702181 1.812928 -1.485995 -0.174909 0.209166 -0.840901 7.356585 -13.995248 -2.447875 -3.390474 -28.546062 -58.947929 20.575499 -27.032695 -78.490384 36.049372 -0.702395 -0.985162 3.253902 16.819445 -18.594702 -1.362467 45.154634 39.545516 -0.390947 145.464945 78.256470 147.303255 0.000000 -0.000000 0.000000 23.797096 15.160828 -19.577758 -13.237222 -10.497081 82.701525 -0.000000 -0.000000 0.000000 -13.686336 -18.052127 -63.093569 -8.546302 -4.072640 82.581976 
-5.560318 -0.083747 81.156911 -4.432842 35.970379 -3.808371 -0.000000 0.000000 0.000000 3.361534 -2.872238 5.447880 0.845648 0.412021 2.733720 0.000000 0.000000 0.000000 0.315210 0.991868 5.708047 1.760799 -1.986539 1.140011 0.185137 -1.005688 7.423352 -14.554598 -2.435100 -3.446253 -27.895731 -61.567825 18.863318 -29.670438 -79.334270 38.673570 -0.472788 -1.128101 3.811745 18.065679 -18.505785 -1.032665 45.562527 35.003205 -0.550043 117.758059 82.175406 119.476111 0.000000 -0.000000 0.000000 23.583130 14.675485 -19.714835 -10.272203 -10.964170 78.271178 -0.000000 -0.000000 0.000000 -12.155524 -19.014552 -63.625034 -9.264545 -4.570465 81.179907 
-5.216722 -0.086469 82.092862 -3.007805 35.655849 -0.341701 -0.000000 0.000000 0.000000 3.546983 -3.139694 5.328978 0.859472 0.337752 2.743231 0.000000 0.000000 0.000000 0.364715 0.764398 6.512085 1.636628 -2.339472 2.203670 0.158586 -1.215995 7.599281 -15.238802 -2.696008 -3.425048 -27.961405 -64.239618 17.877635 -34.532247 -80.497040 43.460186 -0.253865 -1.406665 4.438608 19.574907 -18.524175 -0.930294 45.736973 27.866181 -1.463683 67.193986 82.455762 68.685695 0.000000 -0.000000 0.000000 22.712677 12.061746 -19.524515 -6.569928 -10.950897 73.652468 -0.000000 -0.000000 0.000000 -11.033733 -19.963633 -64.240036 -9.922829 -5.049587 79.873186 
-4.693471 -0.039228 82.799270 -0.802673 32.859549 3.949128 -0.000000 0.000000 0.000000 3.623564 -3.447715 5.170210 0.883991 0.245584 2.760458 0.000000 0.000000 0.000000 0.444030 0.542692 7.132339 1.393400 -2.516207 2.919746 0.133774 -1.447753 7.863225 -15.976646 -3.246451 -3.312059 -28.573437 -66.811354 17.478931 -42.225989 -81.789889 50.972293 -0.058934 -1.798987 4.956083 21.427825 -19.041404 -1.120887 45.522442 22.014036 -3.676236 36.054492 78.071728 37.469369 0.000000 -0.000000 0.000000 21.333820 6.892974 -18.805790 -2.523133 -10.574199 70.229309 -0.000000 -0.000000 0.000000 -10.412644 -21.018017 -64.550253 -10.598648 -5.600157 78.366675 
-4.080635 0.044881 83.327220 1.316057 28.714175 6.826234 -0.000000 0.000000 0.000000 3.595171 -3.787295 5.044664 0.922743 0.130705 2.878327 0.000000 0.000000 0.000000 0.456739 0.225986 7.341733 0.954660 -2.700026 2.976527 0.169451 -1.633195 8.121696 -16.476423 -3.946226 -3.171163 -28.783890 -68.708404 17.050551 -49.784381 -82.871379 58.262225 0.156009 -2.195747 5.357594 23.375345 -19.174339 -1.564773 45.718049 16.056567 -5.155041 26.672184 74.391556 28.007456 0.000000 -0.000000 0.000000 19.880334 0.488300 -17.340254 1.938976 -9.774647 66.785034 -0.000000 -0.000000 0.000000 -10.229124 -21.654980 -64.259974 -10.963929 -5.907807 77.127714 
-3.429351 0.125293 83.727535 2.653632 23.895606 8.328198 -0.000000 0.000000 0.000000 3.605479 -4.207556 4.896793 0.978643 0.026023 3.002082 0.000000 0.000000 0.000000 0.377500 -0.162411 7.097981 0.293344 -2.965854 2.282052 0.249927 -1.746420 8.317945 -16.727463 -4.725430 -3.039564 -29.241897 -70.025027 17.208258 -56.068816 -83.740681 64.228592 0.375184 -2.556547 5.635761 25.124065 -18.623523 -1.891982 46.023745 10.073671 -7.134091 23.269932 72.748680 24.354329 0.000000 -0.000000 0.000000 18.749191 -2.603785 -15.751602 6.432951 -8.495475 62.867005 -0.000000 -0.000000 0.000000 -10.458510 -21.645308 -63.844710 -10.997820 -5.871377 76.286202 
-2.825994 0.152415 84.031116 4.003620 18.797549 9.085841 -0.000000 0.000000 0.000000 3.686529 -4.601511 4.925160 1.032494 -0.018544 3.020992 0.000000 0.000000 0.000000 0.193270 -0.602086 6.330978 -0.381574 -3.316376 0.827178 0.336436 -1.766194 8.454126 -16.674470 -5.537111 -2.910195 -30.519999 -70.758427 18.542251 -59.405660 -84.423264 67.260116 0.627036 -2.895406 5.661102 27.009600 -17.918280 -2.214949 45.960143 4.780173 -8.478030 19.764473 71.156078 20.615394 0.000000 -0.000000 0.000000 18.265543 -3.028120 -13.114696 9.784139 -6.836611 59.239302 -0.000000 -0.000000 -0.000000 -11.301184 -20.985448 -62.938984 -10.606444 -5.316755 76.098863 
-2.359338 0.151473 84.290417 5.602080 14.383493 9.357933 -0.000000 0.000000 0.000000 3.932105 -5.030591 5.056638 1.059370 -0.027858 2.962666 0.000000 0.000000 0.000000 -0.044084 -1.106324 5.026504 -1.022033 -3.922842 -1.447954 0.428005 -1.700000 8.538684 -16.290571 -6.333841 -2.831545 -31.857273 -71.273151 20.066822 -59.486443 -85.014587 67.062655 0.910821 -3.255700 5.436888 28.738784 -17.818249 -3.015812 45.764159 1.170404 -10.182557 16.414026 70.081077 16.644648 0.000000 -0.000000 0.000000 17.902059 -2.407780 -10.272895 11.578845 -5.211770 56.408138 -0.000000 -0.000000 -0.000000 -12.578273 -20.019257 -61.663039 -9.726889 -4.247664 76.437247 
-2.000982 0.166469 84.513307 7.049353 12.737409 9.066000 -0.000000 0.000000 0.000000 4.322253 -5.503415 5.323253 1.034383 0.001311 2.863932 0.000000 0.000000 0.000000 -0.207423 -1.591195 3.823019 -1.518409 -4.627452 -3.744484 0.499100 -1.565681 8.762874 -15.539358 -7.035569 -2.694465 -31.999650 -71.697857 20.551120 -54.736842 -85.395646 62.123855 1.141179 -3.571142 5.092643 30.202539 -17.558478 -3.784062 45.721965 -2.203326 -11.464385 13.663750 71.570981 14.528326 0.000000 -0.000000 0.000000 17.281645 -1.282727 -8.066913 12.100093 -3.920352 54.343453 -0.000000 -0.000000 -0.000000 -13.882607 -19.035460 -60.446993 -8.866918 -3.306826 77.088586 
-1.732277 0.221663 84.728373 8.267391 14.683360 8.412447 -0.000000 0.000000 0.000000 4.714343 -6.093509 5.660703 0.984334 0.000950 2.801601 0.000000 0.000000 0.000000 -0.308815 -2.072934 2.728814 -1.734971 -5.546805 -5.980469 0.544721 -1.414750 9.117755 -14.597653 -7.617532 -2.501253 -29.762909 -72.480595 18.673418 -51.003988 -85.809905 58.300331 1.337844 -3.844773 4.612173 31.089414 -17.205979 -4.657197 45.288571 -4.681970 -12.059983 10.439932 74.770422 9.884216 0.000000 -0.000000 0.000000 16.404863 -0.529040 -7.448542 11.488137 -2.991435 53.269562 -0.000000 -0.000000 -0.000000 -15.293060 -17.856326 -59.304202 -7.969841 -2.496106 77.925929 
-1.524543 0.301479 84.966594 8.825621 17.614270 7.372319 -0.000000 0.000000 0.000000 5.076014 -6.775431 5.838322 0.913740 -0.025671 2.721929 0.000000 0.000000 0.000000 -0.369371 -2.566912 1.717577 -1.677374 -6.579761 -8.034500 0.605933 -1.318844 9.497538 -13.545570 -8.218605 -2.334923 -24.045223 -73.897792 13.139748 -54.034769 -86.534287 61.299845 1.412070 -4.051824 4.169899 31.428006 -17.525982 -5.770543 45.128598 -6.337017 -12.466383 6.127777 77.626686 4.152760 0.000000 -0.000000 0.000000 15.866581 0.446813 -7.324859 10.169467 -2.339351 52.424306 -0.000000 -0.000000 -0.000000 -16.793962 -15.964848 -58.264598 -7.216744 -1.681995 79.026800 
